<svg xmlns:sketch="http://www.bohemiancoding.com/sketch/ns" xmlns="http://www.w3.org/2000/svg" xmlns:xlink="http://www.w3.org/1999/xlink" version="1.1" x="0px" y="0px" viewBox="-23.5 -23 90 90" enable-background="new -23.5 -23 90 90" xml:space="preserve"><title>Fill 209</title><desc>Created with Sketch.</desc><g><defs><path id="a" d="M24.4,34.4c-1,0-2-0.2-3-0.4c-0.5-0.1-1.1-0.2-1.6-0.3c-0.3,0-0.5,0.1-0.7,0.3c-3.9,5-9.4,6-12.7,6.1    c3.8-2.6,4.2-5.7,4.3-6.7c0.1-1.3-0.3-2.3-1-2.7C4.5,27.7,1.4,23,1.4,18c0-9.1,10.3-16.5,23-16.5C36.5,1.5,45,8.3,45,18    C45,27.7,36.5,34.4,24.4,34.4z M24.4,0C10.9,0-0.1,8.1-0.1,18c0,5.6,3.3,10.7,9,14c0.1,0.1,0.4,0.6,0.3,1.5    c-0.1,0.9-0.8,4.2-5.7,6.5c-0.3,0.1-0.5,0.5-0.4,0.8c0,0.3,0.3,0.6,0.6,0.6c0,0,0.8,0.1,2.1,0.1c3.4,0,9.6-0.8,14.2-6.3    c0.4,0.1,0.7,0.1,1.1,0.2c1.1,0.2,2.2,0.4,3.3,0.4c13,0,22.1-7.4,22.1-17.9C46.5,7.4,37.4,0,24.4,0z"></path></defs><use xlink:href="#a" overflow="visible" fill-rule="evenodd" clip-rule="evenodd"></use><clipPath id="b"><use xlink:href="#a" overflow="visible"></use></clipPath><rect x="-5.1" y="-5" clip-path="url(#b)" width="56.6" height="51.7"></rect></g></svg>